Coordinates
version=1
nRows=11
nColumns=46
inDegrees=yes

Units are S.I. units (second, meters, Newtons, ...)
Angles are in degrees.

endheader
time	pelvis_tilt	pelvis_list	pelvis_rotation	pelvis_tx	pelvis_ty	pelvis_tz	bb_angle	bb_tx	bb_ty	bb_tz	hip_flexion_r	hip_adduction_r	hip_rotation_r	knee_angle_r	knee_angle_r_beta	ankle_angle_r	subtalar_angle_r	mtp_angle_r	crank_angle_r	hip_flexion_l	hip_adduction_l	hip_rotation_l	knee_angle_l	knee_angle_l_beta	ankle_angle_l	subtalar_angle_l	mtp_angle_l	crank_angle_l	lumbar_extension	lumbar_bending	lumbar_rotation	arm_flex_r	arm_add_r	arm_rot_r	elbow_flex_r	pro_sup_r	wrist_flex_r	wrist_dev_r	arm_flex_l	arm_add_l	arm_rot_l	elbow_flex_l	pro_sup_l	wrist_flex_l	wrist_dev_l
      5.00000000	    -16.11935885	    -10.73414690	     -2.30349084	      0.10674332	      1.11261679	     -0.29787649	      0.00000000	      0.50000000	      0.00000000	      0.25000000	     89.43388237	      0.62753145	     -3.68562274	    102.77190369	      1.79370810	      9.01225926	    -13.62750055	      0.00000000	      0.00000000	     46.49654548	    -11.78681830	      3.08575662	     45.54627426	      0.79493245	    -21.37076192	    -14.91236652	      0.00000000	      0.00000000	    -62.97796598	      1.58526419	     22.68833943	    -56.68825689	   -119.81846107	    -84.67128165	     77.69033921	     25.04123983	      0.00000000	      0.00000000	     89.82691779	     11.53904196	     27.22850679	     42.54940129	     21.36073709	      0.00000000	      0.00000000
      5.00500000	    -16.03591912	    -10.57153460	     -2.25770442	      0.10676085	      1.11332023	     -0.29749703	      0.00000000	      0.50000000	      0.00000000	      0.25000000	     88.46925095	      0.84542168	     -3.56296630	    100.87251738	      1.76055755	     10.18317551	    -13.92576972	      0.00000000	      0.00000000	     47.03626378	    -11.50154100	      3.52360963	     47.72095019	      0.83288770	    -21.22724298	    -15.62897179	      0.00000000	      0.00000000	    -63.08710738	      1.47719917	     22.43909766	    -56.68294615	   -119.82063787	    -84.63447312	     77.79763706	     24.99684213	      0.00000000	      0.00000000	     89.82941671	     11.43222993	     27.14967591	     42.63843630	     21.30703637	      0.00000000	      0.00000000
      5.01000000	    -16.04174834	    -10.61597683	     -2.14015209	      0.10677692	      1.11368824	     -0.29726756	      0.00000000	      0.50000000	      0.00000000	      0.25000000	     87.47580159	      0.97194770	     -3.71765790	     98.77271345	      1.72390906	     11.22226529	    -14.15094030	      0.00000000	      0.00000000	     47.81711761	    -11.30567375	      4.19959399	     50.05988551	      0.87370983	    -20.94346023	    -16.31617707	      0.00000000	      0.00000000	    -63.10602862	      1.60308191	     22.44338345	    -56.65192748	   -119.82024135	    -84.60970814	     78.03081286	     24.95392638	      0.00000000	      0.00000000	     89.82835914	     11.31362058	     27.09792070	     42.67230582	     21.22432512	      0.00000000	      0.00000000
      5.01500000	    -16.05831440	    -10.59280583	     -1.97946438	      0.10685067	      1.11386928	     -0.29694188	      0.00000000	      0.50000000	      0.00000000	      0.25000000	     86.44308300	      1.03459823	     -3.80436050	     96.60715631	      1.68611296	     12.00652217	    -14.34923462	      0.00000000	      0.00000000	     48.64147655	    -11.02879366	      4.84923199	     52.43712465	      0.91520048	    -20.54955872	    -16.75418469	      0.00000000	      0.00000000	    -63.09636567	      1.68493743	     22.31235115	    -56.61970364	   -119.82062071	    -84.58107988	     78.18157256	     24.89898310	      0.00000000	      0.00000000	     89.82782337	     11.26492049	     27.11277366	     42.65309596	     21.13831158	      0.00000000	      0.00000000
      5.02000000	    -16.06944675	    -10.51319118	     -1.79140148	      0.10708900	      1.11396591	     -0.29657364	      0.00000000	      0.50000000	      0.00000000	      0.25000000	     85.36105961	      1.04342099	     -3.91390283	     94.35165865	      1.64674710	     12.63850949	    -14.66708135	      0.00000000	      0.00000000	     49.45636851	    -10.70560683	      5.42539019	     54.83160204	      0.95699199	    -19.95902207	    -17.12213913	      0.00000000	      0.00000000	    -63.07822011	      1.76775326	     22.15009909	    -56.66330189	   -119.82168275	    -84.50920374	     78.24539110	     24.83374456	      0.00000000	      0.00000000	     89.82853212	     11.17464130	     27.13475633	     42.63216031	     21.05612429	      0.00000000	      0.00000000
      5.02500000	    -16.21586064	    -10.55976638	     -1.58106158	      0.10721993	      1.11364661	     -0.29615219	      0.00000000	      0.50000000	      0.00000000	      0.25000000	     84.36273111	      1.04681156	     -4.14926754	     91.98575286	      1.60545425	     12.95623992	    -15.02243303	      0.00000000	      0.00000000	     50.50831883	    -10.45817739	      6.13320490	     57.28475939	      0.99980766	    -19.16906629	    -16.93700852	      0.00000000	      0.00000000	    -62.90207895	      1.92421026	     22.15489147	    -56.58021448	   -119.81936006	    -84.51762913	     78.16352821	     24.65848039	      0.00000000	      0.00000000	     89.82760456	     11.17463321	     27.29071398	     42.63094860	     20.90665235	      0.00000000	      0.00000000
      5.03000000	    -16.17753710	    -10.29598336	     -1.37036488	      0.10751894	      1.11349776	     -0.29557973	      0.00000000	      0.50000000	      0.00000000	      0.25000000	     83.20769877	      0.98304230	     -4.09821166	     89.67846078	      1.56518441	     13.14957798	    -15.36288158	      0.00000000	      0.00000000	     51.26119546	    -10.01805924	      6.49776682	     59.65544923	      1.04118401	    -18.33786499	    -17.08352079	      0.00000000	      0.00000000	    -62.88275530	      1.88228829	     21.82437458	    -56.66124563	   -119.81902576	    -84.44342920	     78.18374908	     24.57453201	      0.00000000	      0.00000000	     89.82783612	     11.06010939	     27.36614438	     42.59800735	     20.81431675	      0.00000000	      0.00000000
      5.03500000	    -16.14078580	     -9.83778285	     -1.17139146	      0.10802914	      1.11338941	     -0.29503952	      0.00000000	      0.50000000	      0.00000000	      0.25000000	     82.03620363	      0.81904058	     -3.89552264	     87.34827257	      1.52451495	     13.15071122	    -15.50222478	      0.00000000	      0.00000000	     51.92800920	     -9.44450038	      6.64428610	     61.89535909	      1.08027781	    -17.78455233	    -17.25236398	      0.00000000	      0.00000000	    -62.87889511	      1.69311569	     21.27774876	    -56.66979634	   -119.81772789	    -84.42616200	     78.17570924	     24.53791735	      0.00000000	      0.00000000	     89.83118771	     11.04292098	     27.40850502	     42.58583370	     20.77721771	      0.00000000	      0.00000000
      5.04000000	    -16.25883713	     -9.97489015	     -0.96933322	      0.10840884	      1.11250126	     -0.29400541	      0.00000000	      0.50000000	      0.00000000	      0.25000000	     80.95886564	      0.89577201	     -4.24181860	     84.92135060	      1.48215717	     12.63428335	    -16.22281723	      0.00000000	      0.00000000	     53.12231741	     -9.44887846	      7.20129609	     64.57402823	      1.12702940	    -16.16222852	    -16.31814720	      0.00000000	      0.00000000	    -62.68880755	      1.92990294	     21.37490567	    -56.93305315	   -119.81717043	    -84.33476544	     78.60501250	     24.43781049	      0.00000000	      0.00000000	     89.82737488	     10.77928646	     27.65458128	     42.65228121	     20.62104419	      0.00000000	      0.00000000
      5.04500000	    -16.18850031	     -9.64719750	     -0.78033396	      0.10904754	      1.11204670	     -0.29310586	      0.00000000	      0.50000000	      0.00000000	      0.25000000	     79.71786734	      0.80360708	     -4.18458717	     82.53481795	      1.44050432	     12.12185728	    -16.65604657	      0.00000000	      0.00000000	     53.89987372	     -9.07739675	      7.35998009	     66.99461380	      1.16927659	    -15.02595787	    -15.99368175	      0.00000000	      0.00000000	    -62.68091167	      1.82240690	     20.97554124	    -57.08397261	   -119.81805049	    -84.33255705	     78.65128611	     24.29308402	      0.00000000	      0.00000000	     89.82800560	     10.61702806	     27.88023023	     42.71163811	     20.49403177	      0.00000000	      0.00000000
      5.05000000	    -16.08609472	     -9.17351964	     -0.55370425	      0.10977110	      1.11151225	     -0.29230423	      0.00000000	      0.50000000	      0.00000000	      0.25000000	     78.47834547	      0.54321345	     -4.01499694	     80.24542171	      1.40054682	     11.55010961	    -16.65879816	      0.00000000	      0.00000000	     54.63259156	     -8.59157804	      7.30344814	     69.35881542	      1.21053969	    -14.07301130	    -16.11478969	      0.00000000	      0.00000000	    -62.75202302	      1.68064768	     20.43419367	    -57.18945367	   -119.81780586	    -84.30543941	     78.67158690	     24.23813786	      0.00000000	      0.00000000	     89.82852676	     10.46379170	     27.94465627	     42.71540965	     20.43935244	      0.00000000	      0.00000000
